<svg width="70" height="70" viewBox="0 0 70 70" fill="none" xmlns="http://www.w3.org/2000/svg">
<path fill-rule="evenodd" clip-rule="evenodd" d="M35.2703 1.69995C41.8273 1.70094 48.2367 3.6463 53.6882 7.2898C59.1398 10.9333 63.3887 16.1114 65.8975 22.1694C68.4063 28.2275 69.0624 34.8935 67.783 41.3245C66.5035 47.7554 63.346 53.6626 58.7095 58.2991C54.073 62.9356 48.1656 66.0934 41.7346 67.3728C35.3036 68.6523 28.6377 67.9959 22.5796 65.4871C16.5215 62.9783 11.3434 58.7296 7.69995 53.2781C4.05645 47.8265 2.11134 41.4171 2.11035 34.8601C2.10983 30.5053 2.96704 26.1931 4.6333 22.1697C6.29956 18.1463 8.74224 14.4904 11.8215 11.4111C14.9008 8.33184 18.5564 5.8894 22.5798 4.22314C26.6032 2.55688 30.9155 1.69943 35.2703 1.69995Z" stroke="white" stroke-width="2.5" stroke-linecap="round" stroke-linejoin="round"/>
</svg>
